<?xml version="1.0" encoding="utf-8"?>
<!-- Generator: Adobe Illustrator 27.5.0, SVG Export Plug-In . SVG Version: 6.00 Build 0)  -->
<svg version="1.1" id="Layer_1" xmlns="http://www.w3.org/2000/svg" xmlns:xlink="http://www.w3.org/1999/xlink" x="0px" y="0px"
	 viewBox="0 0 709 139.7" style="enable-background:new 0 0 709 139.7;" xml:space="preserve">
<g>
	<path d="M689.7,56.2h-53c-13.4,0-25.5,8.3-30.3,20.9l-14.7,38.5c-4.4,11.6,4.2,24.1,16.6,24.1h55.1c13.4,0,25.5-8.3,30.3-20.9
		l13.9-36.5C712.5,69.7,703.2,56.2,689.7,56.2 M679.9,87.5L679.9,87.5l-7.9,20.9c-2.4,6.3-8.4,10.4-15.1,10.4h-29.3
		c-5.4,0-9.1-5.4-7.2-10.4l7.9-20.9c2.4-6.3,8.4-10.4,15.1-10.4h29.3C678.1,77.1,681.8,82.5,679.9,87.5"/>
	<path d="M492.3,139.7c-12.5,0-21.1-12.5-16.6-24.1l14.7-38.5c4.8-12.6,16.8-20.9,30.3-20.9h53c13.5,0,22.8,13.5,18,26.1h-25.8
		c1-2.5-0.9-5.2-3.6-5.2l-34.9,0c-6.7,0-12.7,4.1-15.1,10.4l-7.9,20.9c-1.9,5,1.8,10.4,7.2,10.4h29.3c6.7,0,12.7-4.2,15.1-10.4H530
		l6-15.6l51.6,0l-10,26.1c-4.8,12.6-16.8,20.9-30.3,20.9H492.3z"/>
	<path d="M703.5,128.7c0.9,0,1.8,0.2,2.7,0.7c0.9,0.5,1.6,1.2,2.1,2c0.5,0.9,0.7,1.8,0.7,2.8c0,0.9-0.2,1.9-0.7,2.7
		c-0.5,0.9-1.2,1.6-2,2c-0.9,0.5-1.8,0.7-2.7,0.7c-1,0-1.9-0.2-2.7-0.7c-0.9-0.5-1.5-1.2-2-2c-0.5-0.9-0.7-1.8-0.7-2.7
		c0-1,0.2-1.9,0.7-2.8c0.5-0.9,1.2-1.6,2.1-2C701.6,128.9,702.5,128.7,703.5,128.7 M703.5,129.6c-0.8,0-1.5,0.2-2.3,0.6
		s-1.3,1-1.7,1.7c-0.4,0.7-0.6,1.5-0.6,2.3c0,0.8,0.2,1.5,0.6,2.3c0.4,0.7,1,1.3,1.7,1.7c0.7,0.4,1.5,0.6,2.3,0.6
		c0.8,0,1.6-0.2,2.3-0.6c0.7-0.4,1.3-1,1.7-1.7c0.4-0.7,0.6-1.5,0.6-2.3c0-0.8-0.2-1.6-0.6-2.3c-0.4-0.7-1-1.3-1.7-1.7
		C705,129.8,704.2,129.6,703.5,129.6 M701,137.2v-5.9h2c0.7,0,1.2,0.1,1.5,0.2c0.3,0.1,0.6,0.3,0.7,0.6c0.2,0.3,0.3,0.6,0.3,0.9
		c0,0.4-0.2,0.8-0.5,1.1c-0.3,0.3-0.7,0.5-1.2,0.5c0.2,0.1,0.4,0.2,0.5,0.3c0.2,0.2,0.5,0.6,0.9,1.2l0.7,1.2h-1.2l-0.5-0.9
		c-0.4-0.7-0.7-1.2-1-1.4c-0.2-0.1-0.4-0.2-0.8-0.2H702v2.5H701z M702,133.9h1.2c0.6,0,0.9-0.1,1.1-0.2c0.2-0.2,0.3-0.4,0.3-0.7
		c0-0.2,0-0.3-0.1-0.5c-0.1-0.1-0.2-0.2-0.4-0.3c-0.2-0.1-0.5-0.1-1-0.1H702V133.9z"/>
	<path d="M401.6,56.3c-0.3,0-0.7,0.1-0.9,0.3c0,0-36.8,25.6-38.6,26.8c-1.8-1.2-38.8-26.8-38.8-26.8c-0.3-0.2-0.6-0.3-0.9-0.3h-34.1
		c-0.7,0-1.4,0.5-1.6,1.2c0,0.2-0.1,0.3-0.1,0.5c0,0.5,0.3,1,0.7,1.3c0,0,51.5,34.8,55.2,37.4c-3.8,2.5-59.9,40.1-59.9,40.1
		c-0.5,0.3-0.7,0.8-0.7,1.3c0,0.2,0,0.3,0.1,0.5c0.2,0.7,0.8,1.2,1.6,1.2h34.8c0.3,0,0.7-0.1,0.9-0.3c0,0,40.9-28.3,42.7-29.6
		c1.8,1.2,42.3,29.6,42.3,29.6c0.3,0.2,0.6,0.3,0.9,0.3h34.2c0.7,0,1.4-0.5,1.6-1.2c0.1-0.2,0.1-0.3,0.1-0.5c0-0.5-0.3-1-0.7-1.3
		c0,0-55.8-37.6-59.5-40.1c3.7-2.5,55.4-37.4,55.4-37.4c0.5-0.3,0.7-0.8,0.7-1.3c0-0.2,0-0.3-0.1-0.5c-0.2-0.7-0.8-1.2-1.6-1.2
		H401.6z"/>
	<path d="M133.9,56.3c-0.5,0-1,0.2-1.3,0.6c0,0-48.6,59.4-51,62.4c-2.4-3-50.1-62.4-50.1-62.4c-0.3-0.4-0.8-0.6-1.3-0.6H1.6
		c-0.6,0-1.2,0.4-1.5,0.9c-0.3,0.6-0.2,1.2,0.2,1.7l66,80.2c0.3,0.4,0.8,0.6,1.3,0.6h27.8c0.5,0,0.9-0.2,1.3-0.6l67-80.2
		c0.4-0.5,0.5-1.2,0.2-1.7c-0.3-0.6-0.8-0.9-1.5-0.9H133.9z"/>
	<path d="M179.1,56.2c-3.3-6-5.3-14-5.3-22.6C173.8,15.3,183,0,194.1,0h70.5c3.8,0,6.8,5.1,6.8,11.3c0,6.2-3.1,11.3-6.8,11.3h-70.5
		c-3.8,0-6.6,5.1-6.6,11c0,5.8,2.7,11.5,6.6,11.5h70.5c3.8,0,6.8,5,6.8,11.1v0c0,6.1-3.1,11.2-6.8,11.2h-70.5c-4,0-6.6,5.7-6.6,11.5
		c0,5.8,2.9,11,6.6,11h70.5c3.8,0,6.8,5.1,6.8,11.3c0,6.2-3.1,11.3-6.8,11.3h-70.5c-11.1,0-20.3-15.3-20.3-33.6
		C173.8,70.3,175.8,62.3,179.1,56.2L179.1,56.2z"/>
</g>
</svg>
